<?xml version="1.0" encoding="UTF-8"?>
<svg id="Layer_2" data-name="Layer 2" xmlns="http://www.w3.org/2000/svg" viewBox="0 0 81 80.61">
  <defs>
    <style>
      .cls-1 {
        fill: #2c3526;
      }
    </style>
  </defs>
  <rect class="cls-1" x="23.98" y="8.23" width="1.94" height="1.94"/>
  <rect class="cls-1" x="25.92" y="8.23" width="1.94" height="1.94"/>
  <rect class="cls-1" x="27.87" y="8.23" width="1.94" height="1.94"/>
  <rect class="cls-1" x="29.81" y="8.23" width="1.94" height="1.94"/>
  <rect class="cls-1" x="31.75" y="8.23" width="1.94" height="1.94"/>
  <rect class="cls-1" x="33.7" y="8.23" width="1.94" height="1.94"/>
  <rect class="cls-1" x="35.64" y="8.23" width="1.94" height="1.94"/>
  <rect class="cls-1" x="37.58" y="8.23" width="1.94" height="1.94"/>
  <rect class="cls-1" x="39.53" y="8.23" width="1.94" height="1.94"/>
  <rect class="cls-1" x="43.42" y="8.23" width="1.94" height="1.94"/>
  <rect class="cls-1" x="53.13" y="8.23" width="1.94" height="1.94"/>
  <rect class="cls-1" x="25.92" y="10.17" width="1.94" height="1.94"/>
  <rect class="cls-1" x="27.87" y="10.17" width="1.94" height="1.94"/>
  <rect class="cls-1" x="29.81" y="10.17" width="1.94" height="1.94"/>
  <rect class="cls-1" x="33.7" y="10.17" width="1.94" height="1.94"/>
  <rect class="cls-1" x="35.64" y="10.17" width="1.94" height="1.94"/>
  <rect class="cls-1" x="43.42" y="10.17" width="1.94" height="1.94"/>
  <rect class="cls-1" x="45.36" y="10.17" width="1.94" height="1.94"/>
  <rect class="cls-1" x="47.3" y="10.17" width="1.94" height="1.94"/>
  <rect class="cls-1" x="55.08" y="10.17" width="1.94" height="1.94"/>
  <rect class="cls-1" x="25.92" y="12.12" width="1.94" height="1.94"/>
  <rect class="cls-1" x="35.64" y="12.12" width="1.94" height="1.94"/>
  <rect class="cls-1" x="37.58" y="12.12" width="1.94" height="1.94"/>
  <rect class="cls-1" x="39.53" y="12.12" width="1.94" height="1.94"/>
  <rect class="cls-1" x="41.47" y="12.12" width="1.94" height="1.94"/>
  <rect class="cls-1" x="43.42" y="12.12" width="1.94" height="1.94"/>
  <rect class="cls-1" x="45.36" y="12.12" width="1.94" height="1.94"/>
  <rect class="cls-1" x="47.3" y="12.12" width="1.94" height="1.94"/>
  <rect class="cls-1" x="49.25" y="12.12" width="1.94" height="1.94"/>
  <rect class="cls-1" x="53.13" y="12.12" width="1.94" height="1.94"/>
  <rect class="cls-1" x="55.08" y="12.12" width="1.94" height="1.94"/>
  <rect class="cls-1" x="23.98" y="14.06" width="1.94" height="1.94"/>
  <rect class="cls-1" x="25.92" y="14.06" width="1.94" height="1.94"/>
  <rect class="cls-1" x="27.87" y="14.06" width="1.94" height="1.94"/>
  <rect class="cls-1" x="31.75" y="14.06" width="1.94" height="1.94"/>
  <rect class="cls-1" x="37.58" y="14.06" width="1.94" height="1.94"/>
  <rect class="cls-1" x="39.53" y="14.06" width="1.94" height="1.94"/>
  <rect class="cls-1" x="41.47" y="14.06" width="1.94" height="1.94"/>
  <rect class="cls-1" x="45.36" y="14.06" width="1.94" height="1.94"/>
  <rect class="cls-1" x="49.25" y="14.06" width="1.94" height="1.94"/>
  <rect class="cls-1" x="51.19" y="14.06" width="1.94" height="1.94"/>
  <rect class="cls-1" x="23.98" y="16.01" width="1.94" height="1.94"/>
  <rect class="cls-1" x="25.92" y="16.01" width="1.94" height="1.94"/>
  <rect class="cls-1" x="27.87" y="16.01" width="1.94" height="1.94"/>
  <rect class="cls-1" x="33.7" y="16.01" width="1.94" height="1.94"/>
  <rect class="cls-1" x="39.53" y="16.01" width="1.94" height="1.94"/>
  <rect class="cls-1" x="45.36" y="16.01" width="1.94" height="1.94"/>
  <rect class="cls-1" x="49.25" y="16.01" width="1.94" height="1.94"/>
  <rect class="cls-1" x="51.19" y="16.01" width="1.94" height="1.94"/>
  <rect class="cls-1" x="23.98" y="17.95" width="1.94" height="1.94"/>
  <rect class="cls-1" x="25.92" y="17.95" width="1.94" height="1.94"/>
  <rect class="cls-1" x="27.87" y="17.95" width="1.94" height="1.94"/>
  <rect class="cls-1" x="31.75" y="17.95" width="1.94" height="1.94"/>
  <rect class="cls-1" x="33.7" y="17.95" width="1.94" height="1.94"/>
  <rect class="cls-1" x="35.64" y="17.95" width="1.94" height="1.94"/>
  <rect class="cls-1" x="37.58" y="17.95" width="1.94" height="1.94"/>
  <rect class="cls-1" x="41.47" y="17.95" width="1.94" height="1.94"/>
  <rect class="cls-1" x="43.42" y="17.95" width="1.94" height="1.94"/>
  <rect class="cls-1" x="47.3" y="17.95" width="1.94" height="1.94"/>
  <rect class="cls-1" x="53.13" y="17.95" width="1.94" height="1.94"/>
  <rect class="cls-1" x="55.08" y="17.95" width="1.94" height="1.94"/>
  <rect class="cls-1" x="23.98" y="19.89" width="1.94" height="1.94"/>
  <rect class="cls-1" x="27.87" y="19.89" width="1.94" height="1.94"/>
  <rect class="cls-1" x="31.75" y="19.89" width="1.94" height="1.94"/>
  <rect class="cls-1" x="35.64" y="19.89" width="1.94" height="1.94"/>
  <rect class="cls-1" x="39.53" y="19.89" width="1.94" height="1.94"/>
  <rect class="cls-1" x="43.42" y="19.89" width="1.94" height="1.94"/>
  <rect class="cls-1" x="47.3" y="19.89" width="1.94" height="1.94"/>
  <rect class="cls-1" x="51.19" y="19.89" width="1.94" height="1.94"/>
  <rect class="cls-1" x="55.08" y="19.89" width="1.94" height="1.94"/>
  <rect class="cls-1" x="23.98" y="21.84" width="1.94" height="1.94"/>
  <rect class="cls-1" x="25.92" y="21.84" width="1.94" height="1.94"/>
  <rect class="cls-1" x="27.87" y="21.84" width="1.94" height="1.94"/>
  <rect class="cls-1" x="31.75" y="21.84" width="1.94" height="1.94"/>
  <rect class="cls-1" x="35.64" y="21.84" width="1.94" height="1.94"/>
  <rect class="cls-1" x="41.47" y="21.84" width="1.94" height="1.94"/>
  <rect class="cls-1" x="43.42" y="21.84" width="1.94" height="1.94"/>
  <rect class="cls-1" x="45.36" y="21.84" width="1.94" height="1.94"/>
  <rect class="cls-1" x="47.3" y="21.84" width="1.94" height="1.94"/>
  <rect class="cls-1" x="49.25" y="21.84" width="1.94" height="1.94"/>
  <rect class="cls-1" x="55.08" y="21.84" width="1.94" height="1.94"/>
  <rect class="cls-1" x="8.43" y="23.78" width="1.94" height="1.94"/>
  <rect class="cls-1" x="16.2" y="23.78" width="1.94" height="1.94"/>
  <rect class="cls-1" x="20.09" y="23.78" width="1.94" height="1.94"/>
  <rect class="cls-1" x="22.03" y="23.78" width="1.94" height="1.94"/>
  <rect class="cls-1" x="23.98" y="23.78" width="1.94" height="1.94"/>
  <rect class="cls-1" x="29.81" y="23.78" width="1.94" height="1.94"/>
  <rect class="cls-1" x="31.75" y="23.78" width="1.94" height="1.94"/>
  <rect class="cls-1" x="37.58" y="23.78" width="1.94" height="1.94"/>
  <rect class="cls-1" x="39.53" y="23.78" width="1.94" height="1.94"/>
  <rect class="cls-1" x="41.47" y="23.78" width="1.94" height="1.94"/>
  <rect class="cls-1" x="47.3" y="23.78" width="1.94" height="1.94"/>
  <rect class="cls-1" x="49.25" y="23.78" width="1.94" height="1.94"/>
  <rect class="cls-1" x="51.19" y="23.78" width="1.94" height="1.94"/>
  <rect class="cls-1" x="53.13" y="23.78" width="1.94" height="1.94"/>
  <rect class="cls-1" x="55.08" y="23.78" width="1.94" height="1.94"/>
  <rect class="cls-1" x="57.02" y="23.78" width="1.94" height="1.94"/>
  <rect class="cls-1" x="58.97" y="23.78" width="1.94" height="1.94"/>
  <rect class="cls-1" x="60.91" y="23.78" width="1.94" height="1.94"/>
  <rect class="cls-1" x="62.85" y="23.78" width="1.94" height="1.94"/>
  <rect class="cls-1" x="64.8" y="23.78" width="1.94" height="1.94"/>
  <rect class="cls-1" x="70.63" y="23.78" width="1.94" height="1.94"/>
  <rect class="cls-1" x="10.37" y="25.73" width="1.94" height="1.94"/>
  <rect class="cls-1" x="14.26" y="25.73" width="1.94" height="1.94"/>
  <rect class="cls-1" x="18.15" y="25.73" width="1.94" height="1.94"/>
  <rect class="cls-1" x="22.03" y="25.73" width="1.94" height="1.94"/>
  <rect class="cls-1" x="27.87" y="25.73" width="1.94" height="1.94"/>
  <rect class="cls-1" x="31.75" y="25.73" width="1.94" height="1.94"/>
  <rect class="cls-1" x="35.64" y="25.73" width="1.94" height="1.94"/>
  <rect class="cls-1" x="37.58" y="25.73" width="1.94" height="1.94"/>
  <rect class="cls-1" x="39.53" y="25.73" width="1.94" height="1.94"/>
  <rect class="cls-1" x="41.47" y="25.73" width="1.94" height="1.94"/>
  <rect class="cls-1" x="43.42" y="25.73" width="1.94" height="1.94"/>
  <rect class="cls-1" x="47.3" y="25.73" width="1.94" height="1.94"/>
  <rect class="cls-1" x="49.25" y="25.73" width="1.94" height="1.94"/>
  <rect class="cls-1" x="53.13" y="25.73" width="1.94" height="1.94"/>
  <rect class="cls-1" x="57.02" y="25.73" width="1.94" height="1.94"/>
  <rect class="cls-1" x="64.8" y="25.73" width="1.94" height="1.94"/>
  <rect class="cls-1" x="66.74" y="25.73" width="1.94" height="1.94"/>
  <rect class="cls-1" x="68.69" y="25.73" width="1.94" height="1.94"/>
  <rect class="cls-1" x="10.37" y="27.67" width="1.94" height="1.94"/>
  <rect class="cls-1" x="12.31" y="27.67" width="1.94" height="1.94"/>
  <rect class="cls-1" x="16.2" y="27.67" width="1.94" height="1.94"/>
  <rect class="cls-1" x="18.15" y="27.67" width="1.94" height="1.94"/>
  <rect class="cls-1" x="20.09" y="27.67" width="1.94" height="1.94"/>
  <rect class="cls-1" x="29.81" y="27.67" width="1.94" height="1.94"/>
  <rect class="cls-1" x="33.7" y="27.67" width="1.94" height="1.94"/>
  <rect class="cls-1" x="35.64" y="27.67" width="1.94" height="1.94"/>
  <rect class="cls-1" x="37.58" y="27.67" width="1.94" height="1.94"/>
  <rect class="cls-1" x="43.42" y="27.67" width="1.94" height="1.94"/>
  <rect class="cls-1" x="53.13" y="27.67" width="1.94" height="1.94"/>
  <rect class="cls-1" x="57.02" y="27.67" width="1.94" height="1.94"/>
  <rect class="cls-1" x="58.97" y="27.67" width="1.94" height="1.94"/>
  <rect class="cls-1" x="64.8" y="27.67" width="1.94" height="1.94"/>
  <rect class="cls-1" x="68.69" y="27.67" width="1.94" height="1.94"/>
  <rect class="cls-1" x="8.43" y="29.61" width="1.94" height="1.94"/>
  <rect class="cls-1" x="10.37" y="29.61" width="1.94" height="1.94"/>
  <rect class="cls-1" x="14.26" y="29.61" width="1.94" height="1.94"/>
  <rect class="cls-1" x="25.92" y="29.61" width="1.94" height="1.94"/>
  <rect class="cls-1" x="27.87" y="29.61" width="1.94" height="1.94"/>
  <rect class="cls-1" x="29.81" y="29.61" width="1.94" height="1.94"/>
  <rect class="cls-1" x="31.75" y="29.61" width="1.94" height="1.94"/>
  <rect class="cls-1" x="33.7" y="29.61" width="1.94" height="1.94"/>
  <rect class="cls-1" x="37.58" y="29.61" width="1.94" height="1.94"/>
  <rect class="cls-1" x="45.36" y="29.61" width="1.94" height="1.94"/>
  <rect class="cls-1" x="47.3" y="29.61" width="1.94" height="1.94"/>
  <rect class="cls-1" x="51.19" y="29.61" width="1.94" height="1.94"/>
  <rect class="cls-1" x="55.08" y="29.61" width="1.94" height="1.94"/>
  <rect class="cls-1" x="58.97" y="29.61" width="1.94" height="1.94"/>
  <rect class="cls-1" x="68.69" y="29.61" width="1.94" height="1.94"/>
  <rect class="cls-1" x="70.63" y="29.61" width="1.94" height="1.94"/>
  <rect class="cls-1" x="10.37" y="31.56" width="1.94" height="1.94"/>
  <rect class="cls-1" x="12.31" y="31.56" width="1.94" height="1.94"/>
  <rect class="cls-1" x="14.26" y="31.56" width="1.94" height="1.94"/>
  <rect class="cls-1" x="16.2" y="31.56" width="1.94" height="1.94"/>
  <rect class="cls-1" x="18.15" y="31.56" width="1.94" height="1.94"/>
  <rect class="cls-1" x="20.09" y="31.56" width="1.94" height="1.94"/>
  <rect class="cls-1" x="22.03" y="31.56" width="1.94" height="1.94"/>
  <rect class="cls-1" x="23.98" y="31.56" width="1.94" height="1.94"/>
  <rect class="cls-1" x="29.81" y="31.56" width="1.94" height="1.94"/>
  <rect class="cls-1" x="31.75" y="31.56" width="1.94" height="1.94"/>
  <rect class="cls-1" x="33.7" y="31.56" width="1.94" height="1.94"/>
  <rect class="cls-1" x="37.58" y="31.56" width="1.94" height="1.94"/>
  <rect class="cls-1" x="39.53" y="31.56" width="1.94" height="1.94"/>
  <rect class="cls-1" x="51.19" y="31.56" width="1.94" height="1.94"/>
  <rect class="cls-1" x="53.13" y="31.56" width="1.94" height="1.94"/>
  <rect class="cls-1" x="55.08" y="31.56" width="1.94" height="1.94"/>
  <rect class="cls-1" x="58.97" y="31.56" width="1.94" height="1.94"/>
  <rect class="cls-1" x="62.85" y="31.56" width="1.94" height="1.94"/>
  <rect class="cls-1" x="64.8" y="31.56" width="1.94" height="1.94"/>
  <rect class="cls-1" x="22.03" y="33.5" width="1.94" height="1.94"/>
  <rect class="cls-1" x="27.87" y="33.5" width="1.94" height="1.94"/>
  <rect class="cls-1" x="29.81" y="33.5" width="1.94" height="1.94"/>
  <rect class="cls-1" x="33.7" y="33.5" width="1.94" height="1.94"/>
  <rect class="cls-1" x="35.64" y="33.5" width="1.94" height="1.94"/>
  <rect class="cls-1" x="41.47" y="33.5" width="1.94" height="1.94"/>
  <rect class="cls-1" x="43.42" y="33.5" width="1.94" height="1.94"/>
  <rect class="cls-1" x="45.36" y="33.5" width="1.94" height="1.94"/>
  <rect class="cls-1" x="47.3" y="33.5" width="1.94" height="1.94"/>
  <rect class="cls-1" x="49.25" y="33.5" width="1.94" height="1.94"/>
  <rect class="cls-1" x="55.08" y="33.5" width="1.94" height="1.94"/>
  <rect class="cls-1" x="57.02" y="33.5" width="1.94" height="1.94"/>
  <rect class="cls-1" x="60.91" y="33.5" width="1.94" height="1.94"/>
  <rect class="cls-1" x="66.74" y="33.5" width="1.94" height="1.94"/>
  <rect class="cls-1" x="8.43" y="35.44" width="1.94" height="1.94"/>
  <rect class="cls-1" x="10.37" y="35.44" width="1.94" height="1.94"/>
  <rect class="cls-1" x="16.2" y="35.44" width="1.94" height="1.94"/>
  <rect class="cls-1" x="20.09" y="35.44" width="1.94" height="1.94"/>
  <rect class="cls-1" x="23.98" y="35.44" width="1.94" height="1.94"/>
  <rect class="cls-1" x="27.87" y="35.44" width="1.94" height="1.94"/>
  <rect class="cls-1" x="31.75" y="35.44" width="1.94" height="1.94"/>
  <rect class="cls-1" x="33.7" y="35.44" width="1.94" height="1.94"/>
  <rect class="cls-1" x="35.64" y="35.44" width="1.94" height="1.94"/>
  <rect class="cls-1" x="37.58" y="35.44" width="1.94" height="1.94"/>
  <rect class="cls-1" x="43.42" y="35.44" width="1.94" height="1.94"/>
  <rect class="cls-1" x="47.3" y="35.44" width="1.94" height="1.94"/>
  <rect class="cls-1" x="53.13" y="35.44" width="1.94" height="1.94"/>
  <rect class="cls-1" x="55.08" y="35.44" width="1.94" height="1.94"/>
  <rect class="cls-1" x="57.02" y="35.44" width="1.94" height="1.94"/>
  <rect class="cls-1" x="58.97" y="35.44" width="1.94" height="1.94"/>
  <rect class="cls-1" x="62.85" y="35.44" width="1.94" height="1.94"/>
  <rect class="cls-1" x="68.69" y="35.44" width="1.94" height="1.94"/>
  <rect class="cls-1" x="8.43" y="37.39" width="1.94" height="1.94"/>
  <rect class="cls-1" x="10.37" y="37.39" width="1.94" height="1.94"/>
  <rect class="cls-1" x="12.31" y="37.39" width="1.94" height="1.94"/>
  <rect class="cls-1" x="16.2" y="37.39" width="1.94" height="1.94"/>
  <rect class="cls-1" x="18.15" y="37.39" width="1.94" height="1.94"/>
  <rect class="cls-1" x="22.03" y="37.39" width="1.94" height="1.94"/>
  <rect class="cls-1" x="27.87" y="37.39" width="1.94" height="1.94"/>
  <rect class="cls-1" x="29.81" y="37.39" width="1.94" height="1.94"/>
  <rect class="cls-1" x="31.75" y="37.39" width="1.94" height="1.94"/>
  <rect class="cls-1" x="33.7" y="37.39" width="1.94" height="1.94"/>
  <rect class="cls-1" x="35.64" y="37.39" width="1.94" height="1.94"/>
  <rect class="cls-1" x="37.58" y="37.39" width="1.94" height="1.94"/>
  <rect class="cls-1" x="39.53" y="37.39" width="1.94" height="1.94"/>
  <rect class="cls-1" x="41.47" y="37.39" width="1.94" height="1.94"/>
  <rect class="cls-1" x="43.42" y="37.39" width="1.94" height="1.94"/>
  <rect class="cls-1" x="49.25" y="37.39" width="1.94" height="1.94"/>
  <rect class="cls-1" x="51.19" y="37.39" width="1.94" height="1.94"/>
  <rect class="cls-1" x="53.13" y="37.39" width="1.94" height="1.94"/>
  <rect class="cls-1" x="55.08" y="37.39" width="1.94" height="1.94"/>
  <rect class="cls-1" x="57.02" y="37.39" width="1.94" height="1.94"/>
  <rect class="cls-1" x="58.97" y="37.39" width="1.94" height="1.94"/>
  <rect class="cls-1" x="60.91" y="37.39" width="1.94" height="1.94"/>
  <rect class="cls-1" x="12.31" y="39.33" width="1.94" height="1.94"/>
  <rect class="cls-1" x="14.26" y="39.33" width="1.94" height="1.94"/>
  <rect class="cls-1" x="18.15" y="39.33" width="1.94" height="1.94"/>
  <rect class="cls-1" x="20.09" y="39.33" width="1.94" height="1.94"/>
  <rect class="cls-1" x="25.92" y="39.33" width="1.94" height="1.94"/>
  <rect class="cls-1" x="27.87" y="39.33" width="1.94" height="1.94"/>
  <rect class="cls-1" x="33.7" y="39.33" width="1.94" height="1.94"/>
  <rect class="cls-1" x="41.47" y="39.33" width="1.94" height="1.94"/>
  <rect class="cls-1" x="45.36" y="39.33" width="1.94" height="1.94"/>
  <rect class="cls-1" x="47.3" y="39.33" width="1.94" height="1.94"/>
  <rect class="cls-1" x="49.25" y="39.33" width="1.94" height="1.94"/>
  <rect class="cls-1" x="51.19" y="39.33" width="1.94" height="1.94"/>
  <rect class="cls-1" x="55.08" y="39.33" width="1.94" height="1.94"/>
  <rect class="cls-1" x="58.97" y="39.33" width="1.94" height="1.94"/>
  <rect class="cls-1" x="62.85" y="39.33" width="1.94" height="1.94"/>
  <rect class="cls-1" x="68.69" y="39.33" width="1.94" height="1.94"/>
  <rect class="cls-1" x="10.37" y="41.28" width="1.94" height="1.94"/>
  <rect class="cls-1" x="12.31" y="41.28" width="1.94" height="1.94"/>
  <rect class="cls-1" x="25.92" y="41.28" width="1.94" height="1.94"/>
  <rect class="cls-1" x="27.87" y="41.28" width="1.94" height="1.94"/>
  <rect class="cls-1" x="33.7" y="41.28" width="1.94" height="1.94"/>
  <rect class="cls-1" x="37.58" y="41.28" width="1.94" height="1.94"/>
  <rect class="cls-1" x="39.53" y="41.28" width="1.94" height="1.94"/>
  <rect class="cls-1" x="43.42" y="41.28" width="1.94" height="1.94"/>
  <rect class="cls-1" x="53.13" y="41.28" width="1.94" height="1.94"/>
  <rect class="cls-1" x="55.08" y="41.28" width="1.94" height="1.94"/>
  <rect class="cls-1" x="64.8" y="41.28" width="1.94" height="1.94"/>
  <rect class="cls-1" x="66.74" y="41.28" width="1.94" height="1.94"/>
  <rect class="cls-1" x="68.69" y="41.28" width="1.94" height="1.94"/>
  <rect class="cls-1" x="10.37" y="43.22" width="1.94" height="1.94"/>
  <rect class="cls-1" x="12.31" y="43.22" width="1.94" height="1.94"/>
  <rect class="cls-1" x="14.26" y="43.22" width="1.94" height="1.94"/>
  <rect class="cls-1" x="18.15" y="43.22" width="1.94" height="1.94"/>
  <rect class="cls-1" x="20.09" y="43.22" width="1.94" height="1.94"/>
  <rect class="cls-1" x="29.81" y="43.22" width="1.94" height="1.94"/>
  <rect class="cls-1" x="31.75" y="43.22" width="1.94" height="1.94"/>
  <rect class="cls-1" x="33.7" y="43.22" width="1.94" height="1.94"/>
  <rect class="cls-1" x="37.58" y="43.22" width="1.94" height="1.94"/>
  <rect class="cls-1" x="41.47" y="43.22" width="1.94" height="1.94"/>
  <rect class="cls-1" x="47.3" y="43.22" width="1.94" height="1.94"/>
  <rect class="cls-1" x="49.25" y="43.22" width="1.94" height="1.94"/>
  <rect class="cls-1" x="51.19" y="43.22" width="1.94" height="1.94"/>
  <rect class="cls-1" x="53.13" y="43.22" width="1.94" height="1.94"/>
  <rect class="cls-1" x="55.08" y="43.22" width="1.94" height="1.94"/>
  <rect class="cls-1" x="58.97" y="43.22" width="1.94" height="1.94"/>
  <rect class="cls-1" x="60.91" y="43.22" width="1.94" height="1.94"/>
  <rect class="cls-1" x="64.8" y="43.22" width="1.94" height="1.94"/>
  <rect class="cls-1" x="12.31" y="45.16" width="1.94" height="1.94"/>
  <rect class="cls-1" x="16.2" y="45.16" width="1.94" height="1.94"/>
  <rect class="cls-1" x="18.15" y="45.16" width="1.94" height="1.94"/>
  <rect class="cls-1" x="23.98" y="45.16" width="1.94" height="1.94"/>
  <rect class="cls-1" x="31.75" y="45.16" width="1.94" height="1.94"/>
  <rect class="cls-1" x="33.7" y="45.16" width="1.94" height="1.94"/>
  <rect class="cls-1" x="35.64" y="45.16" width="1.94" height="1.94"/>
  <rect class="cls-1" x="41.47" y="45.16" width="1.94" height="1.94"/>
  <rect class="cls-1" x="43.42" y="45.16" width="1.94" height="1.94"/>
  <rect class="cls-1" x="49.25" y="45.16" width="1.94" height="1.94"/>
  <rect class="cls-1" x="55.08" y="45.16" width="1.94" height="1.94"/>
  <rect class="cls-1" x="57.02" y="45.16" width="1.94" height="1.94"/>
  <rect class="cls-1" x="58.97" y="45.16" width="1.94" height="1.94"/>
  <rect class="cls-1" x="60.91" y="45.16" width="1.94" height="1.94"/>
  <rect class="cls-1" x="68.69" y="45.16" width="1.94" height="1.94"/>
  <rect class="cls-1" x="8.43" y="47.11" width="1.94" height="1.94"/>
  <rect class="cls-1" x="10.37" y="47.11" width="1.94" height="1.94"/>
  <rect class="cls-1" x="12.31" y="47.11" width="1.94" height="1.94"/>
  <rect class="cls-1" x="14.26" y="47.11" width="1.94" height="1.94"/>
  <rect class="cls-1" x="18.15" y="47.11" width="1.94" height="1.94"/>
  <rect class="cls-1" x="20.09" y="47.11" width="1.94" height="1.94"/>
  <rect class="cls-1" x="22.03" y="47.11" width="1.94" height="1.94"/>
  <rect class="cls-1" x="23.98" y="47.11" width="1.94" height="1.94"/>
  <rect class="cls-1" x="27.87" y="47.11" width="1.94" height="1.94"/>
  <rect class="cls-1" x="33.7" y="47.11" width="1.94" height="1.94"/>
  <rect class="cls-1" x="35.64" y="47.11" width="1.94" height="1.94"/>
  <rect class="cls-1" x="37.58" y="47.11" width="1.94" height="1.94"/>
  <rect class="cls-1" x="43.42" y="47.11" width="1.94" height="1.94"/>
  <rect class="cls-1" x="47.3" y="47.11" width="1.94" height="1.94"/>
  <rect class="cls-1" x="55.08" y="47.11" width="1.94" height="1.94"/>
  <rect class="cls-1" x="58.97" y="47.11" width="1.94" height="1.94"/>
  <rect class="cls-1" x="62.85" y="47.11" width="1.94" height="1.94"/>
  <rect class="cls-1" x="64.8" y="47.11" width="1.94" height="1.94"/>
  <rect class="cls-1" x="68.69" y="47.11" width="1.94" height="1.94"/>
  <rect class="cls-1" x="8.43" y="49.05" width="1.94" height="1.94"/>
  <rect class="cls-1" x="10.37" y="49.05" width="1.94" height="1.94"/>
  <rect class="cls-1" x="14.26" y="49.05" width="1.94" height="1.94"/>
  <rect class="cls-1" x="18.15" y="49.05" width="1.94" height="1.94"/>
  <rect class="cls-1" x="22.03" y="49.05" width="1.94" height="1.94"/>
  <rect class="cls-1" x="25.92" y="49.05" width="1.94" height="1.94"/>
  <rect class="cls-1" x="33.7" y="49.05" width="1.94" height="1.94"/>
  <rect class="cls-1" x="39.53" y="49.05" width="1.94" height="1.94"/>
  <rect class="cls-1" x="41.47" y="49.05" width="1.94" height="1.94"/>
  <rect class="cls-1" x="45.36" y="49.05" width="1.94" height="1.94"/>
  <rect class="cls-1" x="49.25" y="49.05" width="1.94" height="1.94"/>
  <rect class="cls-1" x="51.19" y="49.05" width="1.94" height="1.94"/>
  <rect class="cls-1" x="53.13" y="49.05" width="1.94" height="1.94"/>
  <rect class="cls-1" x="60.91" y="49.05" width="1.94" height="1.94"/>
  <rect class="cls-1" x="68.69" y="49.05" width="1.94" height="1.94"/>
  <rect class="cls-1" x="14.26" y="51" width="1.94" height="1.94"/>
  <rect class="cls-1" x="16.2" y="51" width="1.94" height="1.94"/>
  <rect class="cls-1" x="18.15" y="51" width="1.94" height="1.94"/>
  <rect class="cls-1" x="20.09" y="51" width="1.94" height="1.94"/>
  <rect class="cls-1" x="22.03" y="51" width="1.94" height="1.94"/>
  <rect class="cls-1" x="27.87" y="51" width="1.94" height="1.94"/>
  <rect class="cls-1" x="33.7" y="51" width="1.94" height="1.94"/>
  <rect class="cls-1" x="35.64" y="51" width="1.94" height="1.94"/>
  <rect class="cls-1" x="39.53" y="51" width="1.94" height="1.94"/>
  <rect class="cls-1" x="41.47" y="51" width="1.94" height="1.94"/>
  <rect class="cls-1" x="43.42" y="51" width="1.94" height="1.94"/>
  <rect class="cls-1" x="45.36" y="51" width="1.94" height="1.94"/>
  <rect class="cls-1" x="51.19" y="51" width="1.94" height="1.94"/>
  <rect class="cls-1" x="53.13" y="51" width="1.94" height="1.94"/>
  <rect class="cls-1" x="55.08" y="51" width="1.94" height="1.94"/>
  <rect class="cls-1" x="57.02" y="51" width="1.94" height="1.94"/>
  <rect class="cls-1" x="60.91" y="51" width="1.94" height="1.94"/>
  <rect class="cls-1" x="62.85" y="51" width="1.94" height="1.94"/>
  <rect class="cls-1" x="68.69" y="51" width="1.94" height="1.94"/>
  <rect class="cls-1" x="14.26" y="52.94" width="1.94" height="1.94"/>
  <rect class="cls-1" x="16.2" y="52.94" width="1.94" height="1.94"/>
  <rect class="cls-1" x="18.15" y="52.94" width="1.94" height="1.94"/>
  <rect class="cls-1" x="22.03" y="52.94" width="1.94" height="1.94"/>
  <rect class="cls-1" x="23.98" y="52.94" width="1.94" height="1.94"/>
  <rect class="cls-1" x="25.92" y="52.94" width="1.94" height="1.94"/>
  <rect class="cls-1" x="29.81" y="52.94" width="1.94" height="1.94"/>
  <rect class="cls-1" x="33.7" y="52.94" width="1.94" height="1.94"/>
  <rect class="cls-1" x="41.47" y="52.94" width="1.94" height="1.94"/>
  <rect class="cls-1" x="43.42" y="52.94" width="1.94" height="1.94"/>
  <rect class="cls-1" x="45.36" y="52.94" width="1.94" height="1.94"/>
  <rect class="cls-1" x="47.3" y="52.94" width="1.94" height="1.94"/>
  <rect class="cls-1" x="49.25" y="52.94" width="1.94" height="1.94"/>
  <rect class="cls-1" x="53.13" y="52.94" width="1.94" height="1.94"/>
  <rect class="cls-1" x="57.02" y="52.94" width="1.94" height="1.94"/>
  <rect class="cls-1" x="58.97" y="52.94" width="1.94" height="1.94"/>
  <rect class="cls-1" x="68.69" y="52.94" width="1.94" height="1.94"/>
  <rect class="cls-1" x="70.63" y="52.94" width="1.94" height="1.94"/>
  <rect class="cls-1" x="8.43" y="54.88" width="1.94" height="1.94"/>
  <rect class="cls-1" x="10.37" y="54.88" width="1.94" height="1.94"/>
  <rect class="cls-1" x="12.31" y="54.88" width="1.94" height="1.94"/>
  <rect class="cls-1" x="14.26" y="54.88" width="1.94" height="1.94"/>
  <rect class="cls-1" x="16.2" y="54.88" width="1.94" height="1.94"/>
  <rect class="cls-1" x="20.09" y="54.88" width="1.94" height="1.94"/>
  <rect class="cls-1" x="22.03" y="54.88" width="1.94" height="1.94"/>
  <rect class="cls-1" x="25.92" y="54.88" width="1.94" height="1.94"/>
  <rect class="cls-1" x="37.58" y="54.88" width="1.94" height="1.94"/>
  <rect class="cls-1" x="41.47" y="54.88" width="1.94" height="1.94"/>
  <rect class="cls-1" x="43.42" y="54.88" width="1.94" height="1.94"/>
  <rect class="cls-1" x="47.3" y="54.88" width="1.94" height="1.94"/>
  <rect class="cls-1" x="49.25" y="54.88" width="1.94" height="1.94"/>
  <rect class="cls-1" x="51.19" y="54.88" width="1.94" height="1.94"/>
  <rect class="cls-1" x="55.08" y="54.88" width="1.94" height="1.94"/>
  <rect class="cls-1" x="57.02" y="54.88" width="1.94" height="1.94"/>
  <rect class="cls-1" x="58.97" y="54.88" width="1.94" height="1.94"/>
  <rect class="cls-1" x="60.91" y="54.88" width="1.94" height="1.94"/>
  <rect class="cls-1" x="62.85" y="54.88" width="1.94" height="1.94"/>
  <rect class="cls-1" x="64.8" y="54.88" width="1.94" height="1.94"/>
  <rect class="cls-1" x="68.69" y="54.88" width="1.94" height="1.94"/>
  <rect class="cls-1" x="23.98" y="56.83" width="1.94" height="1.94"/>
  <rect class="cls-1" x="29.81" y="56.83" width="1.94" height="1.94"/>
  <rect class="cls-1" x="31.75" y="56.83" width="1.94" height="1.94"/>
  <rect class="cls-1" x="35.64" y="56.83" width="1.94" height="1.94"/>
  <rect class="cls-1" x="37.58" y="56.83" width="1.94" height="1.94"/>
  <rect class="cls-1" x="39.53" y="56.83" width="1.94" height="1.94"/>
  <rect class="cls-1" x="41.47" y="56.83" width="1.94" height="1.94"/>
  <rect class="cls-1" x="43.42" y="56.83" width="1.94" height="1.94"/>
  <rect class="cls-1" x="49.25" y="56.83" width="1.94" height="1.94"/>
  <rect class="cls-1" x="53.13" y="56.83" width="1.94" height="1.94"/>
  <rect class="cls-1" x="55.08" y="56.83" width="1.94" height="1.94"/>
  <rect class="cls-1" x="62.85" y="56.83" width="1.94" height="1.94"/>
  <rect class="cls-1" x="66.74" y="56.83" width="1.94" height="1.94"/>
  <rect class="cls-1" x="23.98" y="58.77" width="1.94" height="1.94"/>
  <rect class="cls-1" x="27.87" y="58.77" width="1.94" height="1.94"/>
  <rect class="cls-1" x="29.81" y="58.77" width="1.94" height="1.94"/>
  <rect class="cls-1" x="33.7" y="58.77" width="1.94" height="1.94"/>
  <rect class="cls-1" x="35.64" y="58.77" width="1.94" height="1.94"/>
  <rect class="cls-1" x="37.58" y="58.77" width="1.94" height="1.94"/>
  <rect class="cls-1" x="43.42" y="58.77" width="1.94" height="1.94"/>
  <rect class="cls-1" x="55.08" y="58.77" width="1.94" height="1.94"/>
  <rect class="cls-1" x="58.97" y="58.77" width="1.94" height="1.94"/>
  <rect class="cls-1" x="62.85" y="58.77" width="1.94" height="1.94"/>
  <rect class="cls-1" x="64.8" y="58.77" width="1.94" height="1.94"/>
  <rect class="cls-1" x="68.69" y="58.77" width="1.94" height="1.94"/>
  <rect class="cls-1" x="25.92" y="60.71" width="1.94" height="1.94"/>
  <rect class="cls-1" x="31.75" y="60.71" width="1.94" height="1.94"/>
  <rect class="cls-1" x="33.7" y="60.71" width="1.94" height="1.94"/>
  <rect class="cls-1" x="35.64" y="60.71" width="1.94" height="1.94"/>
  <rect class="cls-1" x="39.53" y="60.71" width="1.94" height="1.94"/>
  <rect class="cls-1" x="47.3" y="60.71" width="1.94" height="1.94"/>
  <rect class="cls-1" x="51.19" y="60.71" width="1.94" height="1.94"/>
  <rect class="cls-1" x="55.08" y="60.71" width="1.94" height="1.94"/>
  <rect class="cls-1" x="62.85" y="60.71" width="1.94" height="1.94"/>
  <rect class="cls-1" x="70.63" y="60.71" width="1.94" height="1.94"/>
  <rect class="cls-1" x="23.98" y="62.66" width="1.94" height="1.94"/>
  <rect class="cls-1" x="25.92" y="62.66" width="1.94" height="1.94"/>
  <rect class="cls-1" x="27.87" y="62.66" width="1.94" height="1.94"/>
  <rect class="cls-1" x="29.81" y="62.66" width="1.94" height="1.94"/>
  <rect class="cls-1" x="31.75" y="62.66" width="1.94" height="1.94"/>
  <rect class="cls-1" x="35.64" y="62.66" width="1.94" height="1.94"/>
  <rect class="cls-1" x="39.53" y="62.66" width="1.94" height="1.94"/>
  <rect class="cls-1" x="45.36" y="62.66" width="1.94" height="1.94"/>
  <rect class="cls-1" x="51.19" y="62.66" width="1.94" height="1.94"/>
  <rect class="cls-1" x="55.08" y="62.66" width="1.94" height="1.94"/>
  <rect class="cls-1" x="57.02" y="62.66" width="1.94" height="1.94"/>
  <rect class="cls-1" x="58.97" y="62.66" width="1.94" height="1.94"/>
  <rect class="cls-1" x="60.91" y="62.66" width="1.94" height="1.94"/>
  <rect class="cls-1" x="62.85" y="62.66" width="1.94" height="1.94"/>
  <rect class="cls-1" x="64.8" y="62.66" width="1.94" height="1.94"/>
  <rect class="cls-1" x="25.92" y="64.6" width="1.94" height="1.94"/>
  <rect class="cls-1" x="29.81" y="64.6" width="1.94" height="1.94"/>
  <rect class="cls-1" x="41.47" y="64.6" width="1.94" height="1.94"/>
  <rect class="cls-1" x="43.42" y="64.6" width="1.94" height="1.94"/>
  <rect class="cls-1" x="45.36" y="64.6" width="1.94" height="1.94"/>
  <rect class="cls-1" x="47.3" y="64.6" width="1.94" height="1.94"/>
  <rect class="cls-1" x="53.13" y="64.6" width="1.94" height="1.94"/>
  <rect class="cls-1" x="58.97" y="64.6" width="1.94" height="1.94"/>
  <rect class="cls-1" x="60.91" y="64.6" width="1.94" height="1.94"/>
  <rect class="cls-1" x="62.85" y="64.6" width="1.94" height="1.94"/>
  <rect class="cls-1" x="66.74" y="64.6" width="1.94" height="1.94"/>
  <rect class="cls-1" x="68.69" y="64.6" width="1.94" height="1.94"/>
  <rect class="cls-1" x="29.81" y="66.55" width="1.94" height="1.94"/>
  <rect class="cls-1" x="33.7" y="66.55" width="1.94" height="1.94"/>
  <rect class="cls-1" x="35.64" y="66.55" width="1.94" height="1.94"/>
  <rect class="cls-1" x="37.58" y="66.55" width="1.94" height="1.94"/>
  <rect class="cls-1" x="43.42" y="66.55" width="1.94" height="1.94"/>
  <rect class="cls-1" x="47.3" y="66.55" width="1.94" height="1.94"/>
  <rect class="cls-1" x="49.25" y="66.55" width="1.94" height="1.94"/>
  <rect class="cls-1" x="57.02" y="66.55" width="1.94" height="1.94"/>
  <rect class="cls-1" x="58.97" y="66.55" width="1.94" height="1.94"/>
  <rect class="cls-1" x="60.91" y="66.55" width="1.94" height="1.94"/>
  <rect class="cls-1" x="62.85" y="66.55" width="1.94" height="1.94"/>
  <rect class="cls-1" x="64.8" y="66.55" width="1.94" height="1.94"/>
  <rect class="cls-1" x="66.74" y="66.55" width="1.94" height="1.94"/>
  <rect class="cls-1" x="27.87" y="68.49" width="1.94" height="1.94"/>
  <rect class="cls-1" x="29.81" y="68.49" width="1.94" height="1.94"/>
  <rect class="cls-1" x="35.64" y="68.49" width="1.94" height="1.94"/>
  <rect class="cls-1" x="37.58" y="68.49" width="1.94" height="1.94"/>
  <rect class="cls-1" x="39.53" y="68.49" width="1.94" height="1.94"/>
  <rect class="cls-1" x="41.47" y="68.49" width="1.94" height="1.94"/>
  <rect class="cls-1" x="43.42" y="68.49" width="1.94" height="1.94"/>
  <rect class="cls-1" x="49.25" y="68.49" width="1.94" height="1.94"/>
  <rect class="cls-1" x="53.13" y="68.49" width="1.94" height="1.94"/>
  <rect class="cls-1" x="55.08" y="68.49" width="1.94" height="1.94"/>
  <rect class="cls-1" x="57.02" y="68.49" width="1.94" height="1.94"/>
  <rect class="cls-1" x="23.98" y="70.43" width="1.94" height="1.94"/>
  <rect class="cls-1" x="27.87" y="70.43" width="1.94" height="1.94"/>
  <rect class="cls-1" x="29.81" y="70.43" width="1.94" height="1.94"/>
  <rect class="cls-1" x="31.75" y="70.43" width="1.94" height="1.94"/>
  <rect class="cls-1" x="41.47" y="70.43" width="1.94" height="1.94"/>
  <rect class="cls-1" x="45.36" y="70.43" width="1.94" height="1.94"/>
  <rect class="cls-1" x="47.3" y="70.43" width="1.94" height="1.94"/>
  <rect class="cls-1" x="49.25" y="70.43" width="1.94" height="1.94"/>
  <rect class="cls-1" x="51.19" y="70.43" width="1.94" height="1.94"/>
  <rect class="cls-1" x="53.13" y="70.43" width="1.94" height="1.94"/>
  <rect class="cls-1" x="55.08" y="70.43" width="1.94" height="1.94"/>
  <rect class="cls-1" x="58.97" y="70.43" width="1.94" height="1.94"/>
  <rect class="cls-1" x="70.63" y="70.43" width="1.94" height="1.94"/>
  <path class="cls-1" d="M19.99,8.23h-11.57v13.61h13.61v-13.61h-2.04ZM19.99,19.8h-9.52v-9.52h9.52v9.52Z"/>
  <path class="cls-1" d="M70.53,8.23h-11.57v13.61h13.61v-13.61h-2.04ZM70.53,19.8h-9.52v-9.52h9.52v9.52Z"/>
  <path class="cls-1" d="M19.99,58.77h-11.57v13.61h13.61v-13.61h-2.04ZM19.99,70.34h-9.52v-9.52h9.52v9.52Z"/>
  <rect class="cls-1" x="12.31" y="12.12" width="5.83" height="5.83"/>
  <rect class="cls-1" x="62.85" y="12.12" width="5.83" height="5.83"/>
  <rect class="cls-1" x="12.31" y="62.66" width="5.83" height="5.83"/>
</svg>