<?xml version="1.0" encoding="UTF-8"?>
<svg id="Layer_1" data-name="Layer 1" xmlns="http://www.w3.org/2000/svg" viewBox="0 0 54.19 52.8">
  <defs>
    <style>
      .cls-1 {
        fill: #2c3526;
      }
    </style>
  </defs>
  <path class="cls-1" d="M54.18,8.55v35.73c-.54,4.6-4.47,8.52-9.34,8.52H9.35c-4.87,0-8.81-3.92-9.35-8.52V8.53C.66,3.82,4.48,0,9.36,0h35.47c4.91,0,8.72,3.86,9.35,8.55ZM25.8,28.63c2.37-1.16,3.84-3.35,4.09-5.96.4-4.11-1.46-7.22-5.35-8.63-1.79-.59-3.61-.63-5.51-.59l-6.14.13v23.74s4.88,0,4.88,0v-7.54c2.8.09,5.44.13,8.03-1.14ZM33.03,37.32l5.08-.02v-11.89c.9-.7,1.79-1.03,2.8-1.34,1-.16,1.91-.24,3.04-.3v-4.92c-2.46-.11-4.5,1.01-6.1,2.77-.2-1.18-.06-2.43-1-2.42l-3.96.02.13,4.1v14Z"/>
  <path class="cls-1" d="M25.03,21.79c-.11,3.65-3.99,3.91-7.23,3.73v-7.65s2.46-.03,2.46-.03c1-.01,2.03.16,2.92.58,1.29.61,1.89,1.91,1.85,3.36Z"/>
</svg>