<?xml version="1.0" encoding="UTF-8"?>
<svg id="Layer_2" data-name="Layer 2" xmlns="http://www.w3.org/2000/svg" viewBox="0 0 81 80.61">
  <defs>
    <style>
      .cls-1 {
        fill: #2c3526;
      }
    </style>
  </defs>
  <rect class="cls-1" x="28.1" y="8.83" width="1.91" height="1.91"/>
  <rect class="cls-1" x="30.01" y="8.83" width="1.91" height="1.91"/>
  <rect class="cls-1" x="31.92" y="8.83" width="1.91" height="1.91"/>
  <rect class="cls-1" x="33.82" y="8.83" width="1.91" height="1.91"/>
  <rect class="cls-1" x="35.73" y="8.83" width="1.91" height="1.91"/>
  <rect class="cls-1" x="37.64" y="8.83" width="1.91" height="1.91"/>
  <rect class="cls-1" x="41.45" y="8.83" width="1.91" height="1.91"/>
  <rect class="cls-1" x="43.36" y="8.83" width="1.91" height="1.91"/>
  <rect class="cls-1" x="45.27" y="8.83" width="1.91" height="1.91"/>
  <rect class="cls-1" x="49.08" y="8.83" width="1.91" height="1.91"/>
  <rect class="cls-1" x="50.99" y="8.83" width="1.91" height="1.91"/>
  <rect class="cls-1" x="52.9" y="8.83" width="1.91" height="1.91"/>
  <rect class="cls-1" x="26.19" y="10.74" width="1.91" height="1.91"/>
  <rect class="cls-1" x="28.1" y="10.74" width="1.91" height="1.91"/>
  <rect class="cls-1" x="30.01" y="10.74" width="1.91" height="1.91"/>
  <rect class="cls-1" x="33.82" y="10.74" width="1.91" height="1.91"/>
  <rect class="cls-1" x="35.73" y="10.74" width="1.91" height="1.91"/>
  <rect class="cls-1" x="37.64" y="10.74" width="1.91" height="1.91"/>
  <rect class="cls-1" x="39.55" y="10.74" width="1.91" height="1.91"/>
  <rect class="cls-1" x="43.36" y="10.74" width="1.91" height="1.91"/>
  <rect class="cls-1" x="52.9" y="10.74" width="1.91" height="1.91"/>
  <rect class="cls-1" x="26.19" y="12.65" width="1.91" height="1.91"/>
  <rect class="cls-1" x="28.1" y="12.65" width="1.91" height="1.91"/>
  <rect class="cls-1" x="33.82" y="12.65" width="1.91" height="1.91"/>
  <rect class="cls-1" x="43.36" y="12.65" width="1.91" height="1.91"/>
  <rect class="cls-1" x="45.27" y="12.65" width="1.91" height="1.91"/>
  <rect class="cls-1" x="47.18" y="12.65" width="1.91" height="1.91"/>
  <rect class="cls-1" x="26.19" y="14.55" width="1.91" height="1.91"/>
  <rect class="cls-1" x="30.01" y="14.55" width="1.91" height="1.91"/>
  <rect class="cls-1" x="31.92" y="14.55" width="1.91" height="1.91"/>
  <rect class="cls-1" x="33.82" y="14.55" width="1.91" height="1.91"/>
  <rect class="cls-1" x="35.73" y="14.55" width="1.91" height="1.91"/>
  <rect class="cls-1" x="39.55" y="14.55" width="1.91" height="1.91"/>
  <rect class="cls-1" x="41.45" y="14.55" width="1.91" height="1.91"/>
  <rect class="cls-1" x="43.36" y="14.55" width="1.91" height="1.91"/>
  <rect class="cls-1" x="50.99" y="14.55" width="1.91" height="1.91"/>
  <rect class="cls-1" x="52.9" y="14.55" width="1.91" height="1.91"/>
  <rect class="cls-1" x="26.19" y="16.46" width="1.91" height="1.91"/>
  <rect class="cls-1" x="28.1" y="16.46" width="1.91" height="1.91"/>
  <rect class="cls-1" x="35.73" y="16.46" width="1.91" height="1.91"/>
  <rect class="cls-1" x="43.36" y="16.46" width="1.91" height="1.91"/>
  <rect class="cls-1" x="45.27" y="16.46" width="1.91" height="1.91"/>
  <rect class="cls-1" x="47.18" y="16.46" width="1.91" height="1.91"/>
  <rect class="cls-1" x="24.29" y="18.37" width="1.91" height="1.91"/>
  <rect class="cls-1" x="33.82" y="18.37" width="1.91" height="1.91"/>
  <rect class="cls-1" x="35.73" y="18.37" width="1.91" height="1.91"/>
  <rect class="cls-1" x="37.64" y="18.37" width="1.91" height="1.91"/>
  <rect class="cls-1" x="39.55" y="18.37" width="1.91" height="1.91"/>
  <rect class="cls-1" x="41.45" y="18.37" width="1.91" height="1.91"/>
  <rect class="cls-1" x="45.27" y="18.37" width="1.91" height="1.91"/>
  <rect class="cls-1" x="47.18" y="18.37" width="1.91" height="1.91"/>
  <rect class="cls-1" x="49.08" y="18.37" width="1.91" height="1.91"/>
  <rect class="cls-1" x="54.81" y="18.37" width="1.91" height="1.91"/>
  <rect class="cls-1" x="24.29" y="20.28" width="1.91" height="1.91"/>
  <rect class="cls-1" x="28.1" y="20.28" width="1.91" height="1.91"/>
  <rect class="cls-1" x="31.92" y="20.28" width="1.91" height="1.91"/>
  <rect class="cls-1" x="35.73" y="20.28" width="1.91" height="1.91"/>
  <rect class="cls-1" x="39.55" y="20.28" width="1.91" height="1.91"/>
  <rect class="cls-1" x="43.36" y="20.28" width="1.91" height="1.91"/>
  <rect class="cls-1" x="47.18" y="20.28" width="1.91" height="1.91"/>
  <rect class="cls-1" x="50.99" y="20.28" width="1.91" height="1.91"/>
  <rect class="cls-1" x="54.81" y="20.28" width="1.91" height="1.91"/>
  <rect class="cls-1" x="31.92" y="22.18" width="1.91" height="1.91"/>
  <rect class="cls-1" x="35.73" y="22.18" width="1.91" height="1.91"/>
  <rect class="cls-1" x="37.64" y="22.18" width="1.91" height="1.91"/>
  <rect class="cls-1" x="39.55" y="22.18" width="1.91" height="1.91"/>
  <rect class="cls-1" x="41.45" y="22.18" width="1.91" height="1.91"/>
  <rect class="cls-1" x="43.36" y="22.18" width="1.91" height="1.91"/>
  <rect class="cls-1" x="47.18" y="22.18" width="1.91" height="1.91"/>
  <rect class="cls-1" x="49.08" y="22.18" width="1.91" height="1.91"/>
  <rect class="cls-1" x="54.81" y="22.18" width="1.91" height="1.91"/>
  <rect class="cls-1" x="9.03" y="24.09" width="1.91" height="1.91"/>
  <rect class="cls-1" x="14.75" y="24.09" width="1.91" height="1.91"/>
  <rect class="cls-1" x="18.57" y="24.09" width="1.91" height="1.91"/>
  <rect class="cls-1" x="20.47" y="24.09" width="1.91" height="1.91"/>
  <rect class="cls-1" x="24.29" y="24.09" width="1.91" height="1.91"/>
  <rect class="cls-1" x="30.01" y="24.09" width="1.91" height="1.91"/>
  <rect class="cls-1" x="31.92" y="24.09" width="1.91" height="1.91"/>
  <rect class="cls-1" x="33.82" y="24.09" width="1.91" height="1.91"/>
  <rect class="cls-1" x="35.73" y="24.09" width="1.91" height="1.91"/>
  <rect class="cls-1" x="39.55" y="24.09" width="1.91" height="1.91"/>
  <rect class="cls-1" x="45.27" y="24.09" width="1.91" height="1.91"/>
  <rect class="cls-1" x="49.08" y="24.09" width="1.91" height="1.91"/>
  <rect class="cls-1" x="54.81" y="24.09" width="1.91" height="1.91"/>
  <rect class="cls-1" x="56.71" y="24.09" width="1.91" height="1.91"/>
  <rect class="cls-1" x="60.53" y="24.09" width="1.91" height="1.91"/>
  <rect class="cls-1" x="9.03" y="26" width="1.91" height="1.91"/>
  <rect class="cls-1" x="10.94" y="26" width="1.91" height="1.91"/>
  <rect class="cls-1" x="12.84" y="26" width="1.91" height="1.91"/>
  <rect class="cls-1" x="16.66" y="26" width="1.91" height="1.91"/>
  <rect class="cls-1" x="24.29" y="26" width="1.91" height="1.91"/>
  <rect class="cls-1" x="30.01" y="26" width="1.91" height="1.91"/>
  <rect class="cls-1" x="31.92" y="26" width="1.91" height="1.91"/>
  <rect class="cls-1" x="33.82" y="26" width="1.91" height="1.91"/>
  <rect class="cls-1" x="39.55" y="26" width="1.91" height="1.91"/>
  <rect class="cls-1" x="41.45" y="26" width="1.91" height="1.91"/>
  <rect class="cls-1" x="49.08" y="26" width="1.91" height="1.91"/>
  <rect class="cls-1" x="54.81" y="26" width="1.91" height="1.91"/>
  <rect class="cls-1" x="56.71" y="26" width="1.91" height="1.91"/>
  <rect class="cls-1" x="58.62" y="26" width="1.91" height="1.91"/>
  <rect class="cls-1" x="60.53" y="26" width="1.91" height="1.91"/>
  <rect class="cls-1" x="68.16" y="26" width="1.91" height="1.91"/>
  <rect class="cls-1" x="70.06" y="26" width="1.91" height="1.91"/>
  <rect class="cls-1" x="14.75" y="27.91" width="1.91" height="1.91"/>
  <rect class="cls-1" x="16.66" y="27.91" width="1.91" height="1.91"/>
  <rect class="cls-1" x="18.57" y="27.91" width="1.91" height="1.91"/>
  <rect class="cls-1" x="20.47" y="27.91" width="1.91" height="1.91"/>
  <rect class="cls-1" x="24.29" y="27.91" width="1.91" height="1.91"/>
  <rect class="cls-1" x="30.01" y="27.91" width="1.91" height="1.91"/>
  <rect class="cls-1" x="33.82" y="27.91" width="1.91" height="1.91"/>
  <rect class="cls-1" x="35.73" y="27.91" width="1.91" height="1.91"/>
  <rect class="cls-1" x="43.36" y="27.91" width="1.91" height="1.91"/>
  <rect class="cls-1" x="45.27" y="27.91" width="1.91" height="1.91"/>
  <rect class="cls-1" x="49.08" y="27.91" width="1.91" height="1.91"/>
  <rect class="cls-1" x="50.99" y="27.91" width="1.91" height="1.91"/>
  <rect class="cls-1" x="54.81" y="27.91" width="1.91" height="1.91"/>
  <rect class="cls-1" x="60.53" y="27.91" width="1.91" height="1.91"/>
  <rect class="cls-1" x="62.43" y="27.91" width="1.91" height="1.91"/>
  <rect class="cls-1" x="66.25" y="27.91" width="1.91" height="1.91"/>
  <rect class="cls-1" x="70.06" y="27.91" width="1.91" height="1.91"/>
  <rect class="cls-1" x="10.94" y="29.81" width="1.91" height="1.91"/>
  <rect class="cls-1" x="12.84" y="29.81" width="1.91" height="1.91"/>
  <rect class="cls-1" x="22.38" y="29.81" width="1.91" height="1.91"/>
  <rect class="cls-1" x="26.19" y="29.81" width="1.91" height="1.91"/>
  <rect class="cls-1" x="28.1" y="29.81" width="1.91" height="1.91"/>
  <rect class="cls-1" x="30.01" y="29.81" width="1.91" height="1.91"/>
  <rect class="cls-1" x="33.82" y="29.81" width="1.91" height="1.91"/>
  <rect class="cls-1" x="43.36" y="29.81" width="1.91" height="1.91"/>
  <rect class="cls-1" x="47.18" y="29.81" width="1.91" height="1.91"/>
  <rect class="cls-1" x="49.08" y="29.81" width="1.91" height="1.91"/>
  <rect class="cls-1" x="52.9" y="29.81" width="1.91" height="1.91"/>
  <rect class="cls-1" x="54.81" y="29.81" width="1.91" height="1.91"/>
  <rect class="cls-1" x="56.71" y="29.81" width="1.91" height="1.91"/>
  <rect class="cls-1" x="62.43" y="29.81" width="1.91" height="1.91"/>
  <rect class="cls-1" x="64.34" y="29.81" width="1.91" height="1.91"/>
  <rect class="cls-1" x="9.03" y="31.72" width="1.91" height="1.91"/>
  <rect class="cls-1" x="10.94" y="31.72" width="1.91" height="1.91"/>
  <rect class="cls-1" x="12.84" y="31.72" width="1.91" height="1.91"/>
  <rect class="cls-1" x="16.66" y="31.72" width="1.91" height="1.91"/>
  <rect class="cls-1" x="20.47" y="31.72" width="1.91" height="1.91"/>
  <rect class="cls-1" x="26.19" y="31.72" width="1.91" height="1.91"/>
  <rect class="cls-1" x="30.01" y="31.72" width="1.91" height="1.91"/>
  <rect class="cls-1" x="35.73" y="31.72" width="1.91" height="1.91"/>
  <rect class="cls-1" x="39.55" y="31.72" width="1.91" height="1.91"/>
  <rect class="cls-1" x="43.36" y="31.72" width="1.91" height="1.91"/>
  <rect class="cls-1" x="45.27" y="31.72" width="1.91" height="1.91"/>
  <rect class="cls-1" x="47.18" y="31.72" width="1.91" height="1.91"/>
  <rect class="cls-1" x="49.08" y="31.72" width="1.91" height="1.91"/>
  <rect class="cls-1" x="52.9" y="31.72" width="1.91" height="1.91"/>
  <rect class="cls-1" x="54.81" y="31.72" width="1.91" height="1.91"/>
  <rect class="cls-1" x="56.71" y="31.72" width="1.91" height="1.91"/>
  <rect class="cls-1" x="58.62" y="31.72" width="1.91" height="1.91"/>
  <rect class="cls-1" x="64.34" y="31.72" width="1.91" height="1.91"/>
  <rect class="cls-1" x="10.94" y="33.63" width="1.91" height="1.91"/>
  <rect class="cls-1" x="16.66" y="33.63" width="1.91" height="1.91"/>
  <rect class="cls-1" x="24.29" y="33.63" width="1.91" height="1.91"/>
  <rect class="cls-1" x="26.19" y="33.63" width="1.91" height="1.91"/>
  <rect class="cls-1" x="30.01" y="33.63" width="1.91" height="1.91"/>
  <rect class="cls-1" x="33.82" y="33.63" width="1.91" height="1.91"/>
  <rect class="cls-1" x="35.73" y="33.63" width="1.91" height="1.91"/>
  <rect class="cls-1" x="37.64" y="33.63" width="1.91" height="1.91"/>
  <rect class="cls-1" x="43.36" y="33.63" width="1.91" height="1.91"/>
  <rect class="cls-1" x="45.27" y="33.63" width="1.91" height="1.91"/>
  <rect class="cls-1" x="47.18" y="33.63" width="1.91" height="1.91"/>
  <rect class="cls-1" x="49.08" y="33.63" width="1.91" height="1.91"/>
  <rect class="cls-1" x="50.99" y="33.63" width="1.91" height="1.91"/>
  <rect class="cls-1" x="54.81" y="33.63" width="1.91" height="1.91"/>
  <rect class="cls-1" x="62.43" y="33.63" width="1.91" height="1.91"/>
  <rect class="cls-1" x="64.34" y="33.63" width="1.91" height="1.91"/>
  <rect class="cls-1" x="68.16" y="33.63" width="1.91" height="1.91"/>
  <rect class="cls-1" x="70.06" y="33.63" width="1.91" height="1.91"/>
  <rect class="cls-1" x="10.94" y="35.54" width="1.91" height="1.91"/>
  <rect class="cls-1" x="12.84" y="35.54" width="1.91" height="1.91"/>
  <rect class="cls-1" x="18.57" y="35.54" width="1.91" height="1.91"/>
  <rect class="cls-1" x="20.47" y="35.54" width="1.91" height="1.91"/>
  <rect class="cls-1" x="22.38" y="35.54" width="1.91" height="1.91"/>
  <rect class="cls-1" x="26.19" y="35.54" width="1.91" height="1.91"/>
  <rect class="cls-1" x="37.64" y="35.54" width="1.91" height="1.91"/>
  <rect class="cls-1" x="39.55" y="35.54" width="1.91" height="1.91"/>
  <rect class="cls-1" x="47.18" y="35.54" width="1.91" height="1.91"/>
  <rect class="cls-1" x="49.08" y="35.54" width="1.91" height="1.91"/>
  <rect class="cls-1" x="50.99" y="35.54" width="1.91" height="1.91"/>
  <rect class="cls-1" x="52.9" y="35.54" width="1.91" height="1.91"/>
  <rect class="cls-1" x="56.71" y="35.54" width="1.91" height="1.91"/>
  <rect class="cls-1" x="58.62" y="35.54" width="1.91" height="1.91"/>
  <rect class="cls-1" x="60.53" y="35.54" width="1.91" height="1.91"/>
  <rect class="cls-1" x="62.43" y="35.54" width="1.91" height="1.91"/>
  <rect class="cls-1" x="66.25" y="35.54" width="1.91" height="1.91"/>
  <rect class="cls-1" x="68.16" y="35.54" width="1.91" height="1.91"/>
  <rect class="cls-1" x="9.03" y="37.44" width="1.91" height="1.91"/>
  <rect class="cls-1" x="10.94" y="37.44" width="1.91" height="1.91"/>
  <rect class="cls-1" x="12.84" y="37.44" width="1.91" height="1.91"/>
  <rect class="cls-1" x="14.75" y="37.44" width="1.91" height="1.91"/>
  <rect class="cls-1" x="16.66" y="37.44" width="1.91" height="1.91"/>
  <rect class="cls-1" x="28.1" y="37.44" width="1.91" height="1.91"/>
  <rect class="cls-1" x="33.82" y="37.44" width="1.91" height="1.91"/>
  <rect class="cls-1" x="35.73" y="37.44" width="1.91" height="1.91"/>
  <rect class="cls-1" x="39.55" y="37.44" width="1.91" height="1.91"/>
  <rect class="cls-1" x="41.45" y="37.44" width="1.91" height="1.91"/>
  <rect class="cls-1" x="43.36" y="37.44" width="1.91" height="1.91"/>
  <rect class="cls-1" x="45.27" y="37.44" width="1.91" height="1.91"/>
  <rect class="cls-1" x="49.08" y="37.44" width="1.91" height="1.91"/>
  <rect class="cls-1" x="50.99" y="37.44" width="1.91" height="1.91"/>
  <rect class="cls-1" x="54.81" y="37.44" width="1.91" height="1.91"/>
  <rect class="cls-1" x="58.62" y="37.44" width="1.91" height="1.91"/>
  <rect class="cls-1" x="60.53" y="37.44" width="1.91" height="1.91"/>
  <rect class="cls-1" x="68.16" y="37.44" width="1.91" height="1.91"/>
  <rect class="cls-1" x="9.03" y="39.35" width="1.91" height="1.91"/>
  <rect class="cls-1" x="10.94" y="39.35" width="1.91" height="1.91"/>
  <rect class="cls-1" x="14.75" y="39.35" width="1.91" height="1.91"/>
  <rect class="cls-1" x="18.57" y="39.35" width="1.91" height="1.91"/>
  <rect class="cls-1" x="20.47" y="39.35" width="1.91" height="1.91"/>
  <rect class="cls-1" x="22.38" y="39.35" width="1.91" height="1.91"/>
  <rect class="cls-1" x="24.29" y="39.35" width="1.91" height="1.91"/>
  <rect class="cls-1" x="30.01" y="39.35" width="1.91" height="1.91"/>
  <rect class="cls-1" x="35.73" y="39.35" width="1.91" height="1.91"/>
  <rect class="cls-1" x="37.64" y="39.35" width="1.91" height="1.91"/>
  <rect class="cls-1" x="39.55" y="39.35" width="1.91" height="1.91"/>
  <rect class="cls-1" x="41.45" y="39.35" width="1.91" height="1.91"/>
  <rect class="cls-1" x="45.27" y="39.35" width="1.91" height="1.91"/>
  <rect class="cls-1" x="47.18" y="39.35" width="1.91" height="1.91"/>
  <rect class="cls-1" x="49.08" y="39.35" width="1.91" height="1.91"/>
  <rect class="cls-1" x="50.99" y="39.35" width="1.91" height="1.91"/>
  <rect class="cls-1" x="54.81" y="39.35" width="1.91" height="1.91"/>
  <rect class="cls-1" x="58.62" y="39.35" width="1.91" height="1.91"/>
  <rect class="cls-1" x="62.43" y="39.35" width="1.91" height="1.91"/>
  <rect class="cls-1" x="68.16" y="39.35" width="1.91" height="1.91"/>
  <rect class="cls-1" x="9.03" y="41.26" width="1.91" height="1.91"/>
  <rect class="cls-1" x="10.94" y="41.26" width="1.91" height="1.91"/>
  <rect class="cls-1" x="16.66" y="41.26" width="1.91" height="1.91"/>
  <rect class="cls-1" x="22.38" y="41.26" width="1.91" height="1.91"/>
  <rect class="cls-1" x="24.29" y="41.26" width="1.91" height="1.91"/>
  <rect class="cls-1" x="28.1" y="41.26" width="1.91" height="1.91"/>
  <rect class="cls-1" x="31.92" y="41.26" width="1.91" height="1.91"/>
  <rect class="cls-1" x="35.73" y="41.26" width="1.91" height="1.91"/>
  <rect class="cls-1" x="39.55" y="41.26" width="1.91" height="1.91"/>
  <rect class="cls-1" x="41.45" y="41.26" width="1.91" height="1.91"/>
  <rect class="cls-1" x="49.08" y="41.26" width="1.91" height="1.91"/>
  <rect class="cls-1" x="52.9" y="41.26" width="1.91" height="1.91"/>
  <rect class="cls-1" x="60.53" y="41.26" width="1.91" height="1.91"/>
  <rect class="cls-1" x="64.34" y="41.26" width="1.91" height="1.91"/>
  <rect class="cls-1" x="68.16" y="41.26" width="1.91" height="1.91"/>
  <rect class="cls-1" x="70.06" y="41.26" width="1.91" height="1.91"/>
  <rect class="cls-1" x="9.03" y="43.17" width="1.91" height="1.91"/>
  <rect class="cls-1" x="14.75" y="43.17" width="1.91" height="1.91"/>
  <rect class="cls-1" x="16.66" y="43.17" width="1.91" height="1.91"/>
  <rect class="cls-1" x="20.47" y="43.17" width="1.91" height="1.91"/>
  <rect class="cls-1" x="24.29" y="43.17" width="1.91" height="1.91"/>
  <rect class="cls-1" x="31.92" y="43.17" width="1.91" height="1.91"/>
  <rect class="cls-1" x="33.82" y="43.17" width="1.91" height="1.91"/>
  <rect class="cls-1" x="41.45" y="43.17" width="1.91" height="1.91"/>
  <rect class="cls-1" x="49.08" y="43.17" width="1.91" height="1.91"/>
  <rect class="cls-1" x="58.62" y="43.17" width="1.91" height="1.91"/>
  <rect class="cls-1" x="66.25" y="43.17" width="1.91" height="1.91"/>
  <rect class="cls-1" x="68.16" y="43.17" width="1.91" height="1.91"/>
  <rect class="cls-1" x="70.06" y="43.17" width="1.91" height="1.91"/>
  <rect class="cls-1" x="9.03" y="45.07" width="1.91" height="1.91"/>
  <rect class="cls-1" x="12.84" y="45.07" width="1.91" height="1.91"/>
  <rect class="cls-1" x="14.75" y="45.07" width="1.91" height="1.91"/>
  <rect class="cls-1" x="18.57" y="45.07" width="1.91" height="1.91"/>
  <rect class="cls-1" x="26.19" y="45.07" width="1.91" height="1.91"/>
  <rect class="cls-1" x="28.1" y="45.07" width="1.91" height="1.91"/>
  <rect class="cls-1" x="31.92" y="45.07" width="1.91" height="1.91"/>
  <rect class="cls-1" x="35.73" y="45.07" width="1.91" height="1.91"/>
  <rect class="cls-1" x="37.64" y="45.07" width="1.91" height="1.91"/>
  <rect class="cls-1" x="39.55" y="45.07" width="1.91" height="1.91"/>
  <rect class="cls-1" x="45.27" y="45.07" width="1.91" height="1.91"/>
  <rect class="cls-1" x="47.18" y="45.07" width="1.91" height="1.91"/>
  <rect class="cls-1" x="49.08" y="45.07" width="1.91" height="1.91"/>
  <rect class="cls-1" x="50.99" y="45.07" width="1.91" height="1.91"/>
  <rect class="cls-1" x="54.81" y="45.07" width="1.91" height="1.91"/>
  <rect class="cls-1" x="56.71" y="45.07" width="1.91" height="1.91"/>
  <rect class="cls-1" x="58.62" y="45.07" width="1.91" height="1.91"/>
  <rect class="cls-1" x="60.53" y="45.07" width="1.91" height="1.91"/>
  <rect class="cls-1" x="68.16" y="45.07" width="1.91" height="1.91"/>
  <rect class="cls-1" x="70.06" y="45.07" width="1.91" height="1.91"/>
  <rect class="cls-1" x="9.03" y="46.98" width="1.91" height="1.91"/>
  <rect class="cls-1" x="18.57" y="46.98" width="1.91" height="1.91"/>
  <rect class="cls-1" x="20.47" y="46.98" width="1.91" height="1.91"/>
  <rect class="cls-1" x="24.29" y="46.98" width="1.91" height="1.91"/>
  <rect class="cls-1" x="26.19" y="46.98" width="1.91" height="1.91"/>
  <rect class="cls-1" x="31.92" y="46.98" width="1.91" height="1.91"/>
  <rect class="cls-1" x="33.82" y="46.98" width="1.91" height="1.91"/>
  <rect class="cls-1" x="37.64" y="46.98" width="1.91" height="1.91"/>
  <rect class="cls-1" x="41.45" y="46.98" width="1.91" height="1.91"/>
  <rect class="cls-1" x="45.27" y="46.98" width="1.91" height="1.91"/>
  <rect class="cls-1" x="49.08" y="46.98" width="1.91" height="1.91"/>
  <rect class="cls-1" x="52.9" y="46.98" width="1.91" height="1.91"/>
  <rect class="cls-1" x="54.81" y="46.98" width="1.91" height="1.91"/>
  <rect class="cls-1" x="56.71" y="46.98" width="1.91" height="1.91"/>
  <rect class="cls-1" x="70.06" y="46.98" width="1.91" height="1.91"/>
  <rect class="cls-1" x="12.84" y="48.89" width="1.91" height="1.91"/>
  <rect class="cls-1" x="16.66" y="48.89" width="1.91" height="1.91"/>
  <rect class="cls-1" x="26.19" y="48.89" width="1.91" height="1.91"/>
  <rect class="cls-1" x="30.01" y="48.89" width="1.91" height="1.91"/>
  <rect class="cls-1" x="31.92" y="48.89" width="1.91" height="1.91"/>
  <rect class="cls-1" x="33.82" y="48.89" width="1.91" height="1.91"/>
  <rect class="cls-1" x="35.73" y="48.89" width="1.91" height="1.91"/>
  <rect class="cls-1" x="37.64" y="48.89" width="1.91" height="1.91"/>
  <rect class="cls-1" x="47.18" y="48.89" width="1.91" height="1.91"/>
  <rect class="cls-1" x="49.08" y="48.89" width="1.91" height="1.91"/>
  <rect class="cls-1" x="54.81" y="48.89" width="1.91" height="1.91"/>
  <rect class="cls-1" x="56.71" y="48.89" width="1.91" height="1.91"/>
  <rect class="cls-1" x="58.62" y="48.89" width="1.91" height="1.91"/>
  <rect class="cls-1" x="64.34" y="48.89" width="1.91" height="1.91"/>
  <rect class="cls-1" x="68.16" y="48.89" width="1.91" height="1.91"/>
  <rect class="cls-1" x="70.06" y="48.89" width="1.91" height="1.91"/>
  <rect class="cls-1" x="9.03" y="50.79" width="1.91" height="1.91"/>
  <rect class="cls-1" x="10.94" y="50.79" width="1.91" height="1.91"/>
  <rect class="cls-1" x="12.84" y="50.79" width="1.91" height="1.91"/>
  <rect class="cls-1" x="16.66" y="50.79" width="1.91" height="1.91"/>
  <rect class="cls-1" x="18.57" y="50.79" width="1.91" height="1.91"/>
  <rect class="cls-1" x="20.47" y="50.79" width="1.91" height="1.91"/>
  <rect class="cls-1" x="22.38" y="50.79" width="1.91" height="1.91"/>
  <rect class="cls-1" x="24.29" y="50.79" width="1.91" height="1.91"/>
  <rect class="cls-1" x="26.19" y="50.79" width="1.91" height="1.91"/>
  <rect class="cls-1" x="28.1" y="50.79" width="1.91" height="1.91"/>
  <rect class="cls-1" x="30.01" y="50.79" width="1.91" height="1.91"/>
  <rect class="cls-1" x="39.55" y="50.79" width="1.91" height="1.91"/>
  <rect class="cls-1" x="45.27" y="50.79" width="1.91" height="1.91"/>
  <rect class="cls-1" x="50.99" y="50.79" width="1.91" height="1.91"/>
  <rect class="cls-1" x="54.81" y="50.79" width="1.91" height="1.91"/>
  <rect class="cls-1" x="58.62" y="50.79" width="1.91" height="1.91"/>
  <rect class="cls-1" x="60.53" y="50.79" width="1.91" height="1.91"/>
  <rect class="cls-1" x="70.06" y="50.79" width="1.91" height="1.91"/>
  <rect class="cls-1" x="10.94" y="52.7" width="1.91" height="1.91"/>
  <rect class="cls-1" x="14.75" y="52.7" width="1.91" height="1.91"/>
  <rect class="cls-1" x="18.57" y="52.7" width="1.91" height="1.91"/>
  <rect class="cls-1" x="22.38" y="52.7" width="1.91" height="1.91"/>
  <rect class="cls-1" x="24.29" y="52.7" width="1.91" height="1.91"/>
  <rect class="cls-1" x="28.1" y="52.7" width="1.91" height="1.91"/>
  <rect class="cls-1" x="30.01" y="52.7" width="1.91" height="1.91"/>
  <rect class="cls-1" x="33.82" y="52.7" width="1.91" height="1.91"/>
  <rect class="cls-1" x="35.73" y="52.7" width="1.91" height="1.91"/>
  <rect class="cls-1" x="37.64" y="52.7" width="1.91" height="1.91"/>
  <rect class="cls-1" x="43.36" y="52.7" width="1.91" height="1.91"/>
  <rect class="cls-1" x="45.27" y="52.7" width="1.91" height="1.91"/>
  <rect class="cls-1" x="47.18" y="52.7" width="1.91" height="1.91"/>
  <rect class="cls-1" x="49.08" y="52.7" width="1.91" height="1.91"/>
  <rect class="cls-1" x="50.99" y="52.7" width="1.91" height="1.91"/>
  <rect class="cls-1" x="52.9" y="52.7" width="1.91" height="1.91"/>
  <rect class="cls-1" x="60.53" y="52.7" width="1.91" height="1.91"/>
  <rect class="cls-1" x="62.43" y="52.7" width="1.91" height="1.91"/>
  <rect class="cls-1" x="64.34" y="52.7" width="1.91" height="1.91"/>
  <rect class="cls-1" x="68.16" y="52.7" width="1.91" height="1.91"/>
  <rect class="cls-1" x="70.06" y="52.7" width="1.91" height="1.91"/>
  <rect class="cls-1" x="9.03" y="54.61" width="1.91" height="1.91"/>
  <rect class="cls-1" x="12.84" y="54.61" width="1.91" height="1.91"/>
  <rect class="cls-1" x="14.75" y="54.61" width="1.91" height="1.91"/>
  <rect class="cls-1" x="16.66" y="54.61" width="1.91" height="1.91"/>
  <rect class="cls-1" x="20.47" y="54.61" width="1.91" height="1.91"/>
  <rect class="cls-1" x="22.38" y="54.61" width="1.91" height="1.91"/>
  <rect class="cls-1" x="24.29" y="54.61" width="1.91" height="1.91"/>
  <rect class="cls-1" x="28.1" y="54.61" width="1.91" height="1.91"/>
  <rect class="cls-1" x="33.82" y="54.61" width="1.91" height="1.91"/>
  <rect class="cls-1" x="39.55" y="54.61" width="1.91" height="1.91"/>
  <rect class="cls-1" x="41.45" y="54.61" width="1.91" height="1.91"/>
  <rect class="cls-1" x="43.36" y="54.61" width="1.91" height="1.91"/>
  <rect class="cls-1" x="45.27" y="54.61" width="1.91" height="1.91"/>
  <rect class="cls-1" x="47.18" y="54.61" width="1.91" height="1.91"/>
  <rect class="cls-1" x="49.08" y="54.61" width="1.91" height="1.91"/>
  <rect class="cls-1" x="54.81" y="54.61" width="1.91" height="1.91"/>
  <rect class="cls-1" x="56.71" y="54.61" width="1.91" height="1.91"/>
  <rect class="cls-1" x="58.62" y="54.61" width="1.91" height="1.91"/>
  <rect class="cls-1" x="60.53" y="54.61" width="1.91" height="1.91"/>
  <rect class="cls-1" x="62.43" y="54.61" width="1.91" height="1.91"/>
  <rect class="cls-1" x="68.16" y="54.61" width="1.91" height="1.91"/>
  <rect class="cls-1" x="70.06" y="54.61" width="1.91" height="1.91"/>
  <rect class="cls-1" x="24.29" y="56.52" width="1.91" height="1.91"/>
  <rect class="cls-1" x="28.1" y="56.52" width="1.91" height="1.91"/>
  <rect class="cls-1" x="31.92" y="56.52" width="1.91" height="1.91"/>
  <rect class="cls-1" x="33.82" y="56.52" width="1.91" height="1.91"/>
  <rect class="cls-1" x="41.45" y="56.52" width="1.91" height="1.91"/>
  <rect class="cls-1" x="45.27" y="56.52" width="1.91" height="1.91"/>
  <rect class="cls-1" x="47.18" y="56.52" width="1.91" height="1.91"/>
  <rect class="cls-1" x="50.99" y="56.52" width="1.91" height="1.91"/>
  <rect class="cls-1" x="54.81" y="56.52" width="1.91" height="1.91"/>
  <rect class="cls-1" x="62.43" y="56.52" width="1.91" height="1.91"/>
  <rect class="cls-1" x="64.34" y="56.52" width="1.91" height="1.91"/>
  <rect class="cls-1" x="70.06" y="56.52" width="1.91" height="1.91"/>
  <rect class="cls-1" x="28.1" y="58.42" width="1.91" height="1.91"/>
  <rect class="cls-1" x="31.92" y="58.42" width="1.91" height="1.91"/>
  <rect class="cls-1" x="41.45" y="58.42" width="1.91" height="1.91"/>
  <rect class="cls-1" x="43.36" y="58.42" width="1.91" height="1.91"/>
  <rect class="cls-1" x="47.18" y="58.42" width="1.91" height="1.91"/>
  <rect class="cls-1" x="50.99" y="58.42" width="1.91" height="1.91"/>
  <rect class="cls-1" x="54.81" y="58.42" width="1.91" height="1.91"/>
  <rect class="cls-1" x="58.62" y="58.42" width="1.91" height="1.91"/>
  <rect class="cls-1" x="62.43" y="58.42" width="1.91" height="1.91"/>
  <rect class="cls-1" x="64.34" y="58.42" width="1.91" height="1.91"/>
  <rect class="cls-1" x="66.25" y="58.42" width="1.91" height="1.91"/>
  <rect class="cls-1" x="68.16" y="58.42" width="1.91" height="1.91"/>
  <rect class="cls-1" x="24.29" y="60.33" width="1.91" height="1.91"/>
  <rect class="cls-1" x="26.19" y="60.33" width="1.91" height="1.91"/>
  <rect class="cls-1" x="30.01" y="60.33" width="1.91" height="1.91"/>
  <rect class="cls-1" x="31.92" y="60.33" width="1.91" height="1.91"/>
  <rect class="cls-1" x="35.73" y="60.33" width="1.91" height="1.91"/>
  <rect class="cls-1" x="37.64" y="60.33" width="1.91" height="1.91"/>
  <rect class="cls-1" x="41.45" y="60.33" width="1.91" height="1.91"/>
  <rect class="cls-1" x="43.36" y="60.33" width="1.91" height="1.91"/>
  <rect class="cls-1" x="47.18" y="60.33" width="1.91" height="1.91"/>
  <rect class="cls-1" x="49.08" y="60.33" width="1.91" height="1.91"/>
  <rect class="cls-1" x="50.99" y="60.33" width="1.91" height="1.91"/>
  <rect class="cls-1" x="54.81" y="60.33" width="1.91" height="1.91"/>
  <rect class="cls-1" x="62.43" y="60.33" width="1.91" height="1.91"/>
  <rect class="cls-1" x="68.16" y="60.33" width="1.91" height="1.91"/>
  <rect class="cls-1" x="70.06" y="60.33" width="1.91" height="1.91"/>
  <rect class="cls-1" x="26.19" y="62.24" width="1.91" height="1.91"/>
  <rect class="cls-1" x="28.1" y="62.24" width="1.91" height="1.91"/>
  <rect class="cls-1" x="33.82" y="62.24" width="1.91" height="1.91"/>
  <rect class="cls-1" x="43.36" y="62.24" width="1.91" height="1.91"/>
  <rect class="cls-1" x="47.18" y="62.24" width="1.91" height="1.91"/>
  <rect class="cls-1" x="49.08" y="62.24" width="1.91" height="1.91"/>
  <rect class="cls-1" x="50.99" y="62.24" width="1.91" height="1.91"/>
  <rect class="cls-1" x="54.81" y="62.24" width="1.91" height="1.91"/>
  <rect class="cls-1" x="56.71" y="62.24" width="1.91" height="1.91"/>
  <rect class="cls-1" x="58.62" y="62.24" width="1.91" height="1.91"/>
  <rect class="cls-1" x="60.53" y="62.24" width="1.91" height="1.91"/>
  <rect class="cls-1" x="62.43" y="62.24" width="1.91" height="1.91"/>
  <rect class="cls-1" x="64.34" y="62.24" width="1.91" height="1.91"/>
  <rect class="cls-1" x="24.29" y="64.15" width="1.91" height="1.91"/>
  <rect class="cls-1" x="26.19" y="64.15" width="1.91" height="1.91"/>
  <rect class="cls-1" x="30.01" y="64.15" width="1.91" height="1.91"/>
  <rect class="cls-1" x="33.82" y="64.15" width="1.91" height="1.91"/>
  <rect class="cls-1" x="37.64" y="64.15" width="1.91" height="1.91"/>
  <rect class="cls-1" x="39.55" y="64.15" width="1.91" height="1.91"/>
  <rect class="cls-1" x="41.45" y="64.15" width="1.91" height="1.91"/>
  <rect class="cls-1" x="43.36" y="64.15" width="1.91" height="1.91"/>
  <rect class="cls-1" x="49.08" y="64.15" width="1.91" height="1.91"/>
  <rect class="cls-1" x="52.9" y="64.15" width="1.91" height="1.91"/>
  <rect class="cls-1" x="54.81" y="64.15" width="1.91" height="1.91"/>
  <rect class="cls-1" x="58.62" y="64.15" width="1.91" height="1.91"/>
  <rect class="cls-1" x="62.43" y="64.15" width="1.91" height="1.91"/>
  <rect class="cls-1" x="26.19" y="66.05" width="1.91" height="1.91"/>
  <rect class="cls-1" x="28.1" y="66.05" width="1.91" height="1.91"/>
  <rect class="cls-1" x="30.01" y="66.05" width="1.91" height="1.91"/>
  <rect class="cls-1" x="33.82" y="66.05" width="1.91" height="1.91"/>
  <rect class="cls-1" x="37.64" y="66.05" width="1.91" height="1.91"/>
  <rect class="cls-1" x="39.55" y="66.05" width="1.91" height="1.91"/>
  <rect class="cls-1" x="41.45" y="66.05" width="1.91" height="1.91"/>
  <rect class="cls-1" x="49.08" y="66.05" width="1.91" height="1.91"/>
  <rect class="cls-1" x="50.99" y="66.05" width="1.91" height="1.91"/>
  <rect class="cls-1" x="52.9" y="66.05" width="1.91" height="1.91"/>
  <rect class="cls-1" x="54.81" y="66.05" width="1.91" height="1.91"/>
  <rect class="cls-1" x="56.71" y="66.05" width="1.91" height="1.91"/>
  <rect class="cls-1" x="62.43" y="66.05" width="1.91" height="1.91"/>
  <rect class="cls-1" x="64.34" y="66.05" width="1.91" height="1.91"/>
  <rect class="cls-1" x="66.25" y="66.05" width="1.91" height="1.91"/>
  <rect class="cls-1" x="70.06" y="66.05" width="1.91" height="1.91"/>
  <rect class="cls-1" x="28.1" y="67.96" width="1.91" height="1.91"/>
  <rect class="cls-1" x="33.82" y="67.96" width="1.91" height="1.91"/>
  <rect class="cls-1" x="41.45" y="67.96" width="1.91" height="1.91"/>
  <rect class="cls-1" x="43.36" y="67.96" width="1.91" height="1.91"/>
  <rect class="cls-1" x="45.27" y="67.96" width="1.91" height="1.91"/>
  <rect class="cls-1" x="49.08" y="67.96" width="1.91" height="1.91"/>
  <rect class="cls-1" x="50.99" y="67.96" width="1.91" height="1.91"/>
  <rect class="cls-1" x="54.81" y="67.96" width="1.91" height="1.91"/>
  <rect class="cls-1" x="24.29" y="69.87" width="1.91" height="1.91"/>
  <rect class="cls-1" x="26.19" y="69.87" width="1.91" height="1.91"/>
  <rect class="cls-1" x="31.92" y="69.87" width="1.91" height="1.91"/>
  <rect class="cls-1" x="33.82" y="69.87" width="1.91" height="1.91"/>
  <rect class="cls-1" x="35.73" y="69.87" width="1.91" height="1.91"/>
  <rect class="cls-1" x="37.64" y="69.87" width="1.91" height="1.91"/>
  <rect class="cls-1" x="39.55" y="69.87" width="1.91" height="1.91"/>
  <rect class="cls-1" x="41.45" y="69.87" width="1.91" height="1.91"/>
  <rect class="cls-1" x="49.08" y="69.87" width="1.91" height="1.91"/>
  <rect class="cls-1" x="54.81" y="69.87" width="1.91" height="1.91"/>
  <rect class="cls-1" x="56.71" y="69.87" width="1.91" height="1.91"/>
  <rect class="cls-1" x="62.43" y="69.87" width="1.91" height="1.91"/>
  <rect class="cls-1" x="68.16" y="69.87" width="1.91" height="1.91"/>
  <path class="cls-1" d="M20.38,8.83h-11.35v13.35h13.35v-13.35h-2ZM20.38,20.18h-9.35v-9.35h9.35v9.35Z"/>
  <path class="cls-1" d="M69.97,8.83h-11.35v13.35h13.35v-13.35h-2ZM69.97,20.18h-9.35v-9.35h9.35v9.35Z"/>
  <path class="cls-1" d="M20.38,58.42h-11.35v13.35h13.35v-13.35h-2ZM20.38,69.77h-9.35v-9.35h9.35v9.35Z"/>
  <rect class="cls-1" x="12.84" y="12.65" width="5.72" height="5.72"/>
  <rect class="cls-1" x="62.43" y="12.65" width="5.72" height="5.72"/>
  <rect class="cls-1" x="12.84" y="62.24" width="5.72" height="5.72"/>
</svg>